<?xml version="1.0" encoding="UTF-8" standalone="no"?>
<!-- Created with Inkscape (http://www.inkscape.org/) -->

<svg
   width="181.28104mm"
   height="81.808624mm"
   viewBox="0 0 181.28104 81.808624"
   version="1.1"
   id="svg1"
   xml:space="preserve"
   sodipodi:docname="medinologo2.svg"
   inkscape:export-filename="../medinologo3.svg"
   inkscape:export-xdpi="12.41923"
   inkscape:export-ydpi="12.41923"
   xmlns:inkscape="http://www.inkscape.org/namespaces/inkscape"
   xmlns:sodipodi="http://sodipodi.sourceforge.net/DTD/sodipodi-0.dtd"
   xmlns="http://www.w3.org/2000/svg"
   xmlns:svg="http://www.w3.org/2000/svg"><sodipodi:namedview
     id="namedview1"
     pagecolor="#ffffff"
     bordercolor="#000000"
     borderopacity="0.25"
     inkscape:showpageshadow="2"
     inkscape:pageopacity="0.0"
     inkscape:pagecheckerboard="0"
     inkscape:deskcolor="#d1d1d1"
     inkscape:document-units="mm"><inkscape:page
       x="0"
       y="0"
       width="181.28104"
       height="81.808624"
       id="page2"
       margin="0"
       bleed="0" /></sodipodi:namedview><defs
     id="defs1" /><path
     d="m 52.329127,48.402809 c 0.081,-0.1376 0.0712,-0.22325 -0.04384,-0.38287 -0.291277,-0.40417 -0.442657,-0.42862 -2.411837,-0.38946 -3.985419,0.0793 -4.50203,0.0613 -5.281862,-0.18338 -0.389066,-0.12209 -1.259158,-0.4544 -1.933539,-0.73847 -1.535929,-0.64698 -2.582168,-0.93964 -2.944722,-0.82372 -0.379318,0.12129 -0.494526,0.48546 -0.248398,0.78518 0.203203,0.24745 0.03491,0.20001 4.277788,1.20576 1.638632,0.38843 2.880605,0.52756 4.850229,0.54337 0.730215,0.006 1.624768,0.0384 1.987896,0.0723 1.312784,0.1225 1.633562,0.10623 1.748286,-0.0887 z m 87.808953,-0.0213 c 1.64914,-0.41781 2.47458,-0.97275 3.06646,-2.06158 0.58171,-1.07013 0.89443,-3.06888 0.89273,-5.70594 -0.002,-2.47952 -0.23738,-3.89345 -0.81887,-4.91052 -0.41919,-0.7332 -0.84046,-1.17641 -1.49176,-1.56946 -1.83447,-1.10707 -5.35778,-1.20213 -7.4251,-0.20033 -1.83493,0.88919 -2.52492,2.84116 -2.52492,7.14297 0,3.52252 0.38456,5.03437 1.55011,6.09407 0.68913,0.62655 1.61228,1.03784 2.88288,1.28441 0.80054,0.15535 3.14046,0.11082 3.86847,-0.0736 z m -3.30256,-0.70552 c -1.34818,-0.343 -1.96364,-1.21214 -2.27453,-3.21209 -0.169,-1.08722 -0.17227,-5.4665 -0.005,-6.68875 0.23134,-1.69023 0.52898,-2.50183 1.11273,-3.03414 0.97148,-0.88589 2.70121,-1.06238 4.0307,-0.41126 1.45841,0.71426 1.81027,2.10615 1.72723,6.83265 -0.0274,1.55642 -0.095,3.11928 -0.15032,3.47301 -0.246,1.57279 -0.77443,2.44132 -1.74916,2.8749 -0.66503,0.29582 -1.88498,0.37091 -2.69167,0.16568 z m -75.1722,-5.58745 c 0,-3.47122 0.03557,-6.11304 0.0817,-6.06705 0.07763,0.0774 0.560033,1.17581 2.088343,4.75502 0.372571,0.87254 0.902434,2.10739 1.177473,2.74411 0.275039,0.63672 0.764327,1.76949 1.087306,2.51728 0.356816,0.82613 0.697649,1.47395 0.868631,1.651 0.312724,0.32383 1.078672,0.57829 1.602183,0.53228 l 0.30723,-0.027 2.6422,-6.10183 2.642201,-6.10184 0.04716,6.10184 0.04716,6.10183 h 0.771487 c 0.85815,0 1.117089,-0.10973 1.515748,-0.64228 l 0.212217,-0.2835 -3.52e-4,-6.44025 c -3.47e-4,-6.23627 -0.0062,-6.44894 -0.184472,-6.71478 -0.299466,-0.44654 -0.677484,-0.5756 -1.697516,-0.57954 l -0.891986,-0.004 -2.472838,5.70259 c -1.360061,3.13642 -2.540918,5.85695 -2.624127,6.0456 l -0.151289,0.34306 -0.688534,-1.58643 c -0.378694,-0.87254 -1.275339,-2.95635 -1.992545,-4.63068 -0.717207,-1.67433 -1.583945,-3.68096 -1.926086,-4.45917 l -0.622074,-1.41493 h -0.902948 c -0.804016,0 -0.939962,0.0231 -1.240773,0.21046 -0.733437,0.45693 -0.68276,-0.0775 -0.711657,7.50453 -0.0142,3.72443 -0.0049,6.82119 0.02062,6.8817 0.02926,0.0693 0.22188,0.11 0.520983,0.11 h 0.474555 z m 29.23887,5.77612 v -0.3724 l -1.626995,-0.0561 c -0.894849,-0.0309 -2.610781,-0.0562 -3.813179,-0.0564 -1.86876,-2.2e-4 -2.207871,-0.02 -2.335577,-0.13609 -0.131693,-0.11973 -0.146464,-0.49829 -0.124636,-3.19431 l 0.02476,-3.05848 2.381553,-0.0229 2.381554,-0.0229 v -0.51157 -0.51158 l -2.381554,-0.0229 -2.381553,-0.0229 -0.02733,-2.44396 c -0.01503,-1.34419 -0.0032,-2.566 0.0263,-2.71514 0.04082,-0.20639 0.123948,-0.29346 0.347942,-0.36445 0.191158,-0.0606 1.495995,-0.0933 3.722879,-0.0933 h 3.428566 v -0.38905 -0.38904 l -4.503729,0.0246 c -4.329997,0.0236 -4.517951,0.0314 -4.872365,0.20043 -0.75951,0.36228 -0.716034,-0.10208 -0.716034,7.64781 v 6.88304 h 5.234703 5.234695 z m 11.42333,0.17637 c 2.08814,-0.37408 2.93188,-1.30993 3.34102,-3.70576 0.20124,-1.1784 0.28761,-4.6277 0.14602,-5.83122 -0.34868,-2.96379 -1.17355,-4.24754 -3.07206,-4.78108 -0.62273,-0.17501 -0.85044,-0.18611 -3.8832,-0.18926 l -3.22169,-0.003 -0.40959,0.25841 c -0.24004,0.15144 -0.49745,0.41632 -0.62182,0.63988 l -0.21221,0.38147 v 6.72191 6.72191 l 3.6077,-0.0421 c 2.66465,-0.0311 3.79542,-0.0758 4.32583,-0.17078 z m -5.38692,-7.08782 v -6.62061 l 1.95712,0.0276 c 1.87824,0.0265 1.97802,0.0366 2.47587,0.25004 0.98052,0.42035 1.39789,1.00065 1.67389,2.32731 0.24141,1.16041 0.23891,6.75525 -0.004,7.94001 -0.29817,1.45693 -0.85389,2.0926 -2.15105,2.46048 -0.36434,0.10333 -1.0004,0.15754 -2.23096,0.19014 l -1.72132,0.0456 z m 14.52325,7.13364 c 0.18053,-0.0825 0.42458,-0.28106 0.54233,-0.44132 l 0.2141,-0.29138 -3.5e-4,-6.48313 c -3.5e-4,-6.35003 -0.004,-6.48895 -0.19059,-6.76681 -0.27248,-0.40633 -0.83317,-0.61253 -1.67186,-0.61484 l -0.68381,-0.002 v 7.37478 7.37478 l 0.73097,-1.3e-4 c 0.50764,-9e-5 0.83126,-0.0459 1.05921,-0.15007 z m 6.24985,-5.7881 0.0242,-5.93829 1.00116,1.45769 c 0.55063,0.80172 1.92469,2.80829 3.05347,4.45905 1.12877,1.65075 2.38903,3.49131 2.80058,4.09014 0.41154,0.59883 0.89379,1.20495 1.07165,1.34693 0.41363,0.33019 1.13093,0.52278 1.94712,0.52278 h 0.64364 l -0.0241,-7.35335 -0.0241,-7.35334 h -0.4716 -0.47159 l -0.0472,5.97754 -0.0472,5.97753 -1.59688,-2.33302 c -0.87829,-1.28316 -1.83898,-2.68032 -2.13486,-3.1048 -0.29589,-0.42448 -0.92992,-1.35061 -1.40895,-2.05808 -1.04082,-1.53712 -1.62175,-2.38243 -2.48057,-3.60943 l -0.64165,-0.91673 -0.66462,0.0507 c -0.77712,0.0592 -1.04499,0.19418 -1.30487,0.65732 -0.18557,0.33072 -0.18985,0.49295 -0.18985,7.20202 v 6.86368 h 0.47095 0.47095 z m -64.007739,4.44619 c 1.255481,-0.53149 2.941111,-2.58175 3.10538,-3.77711 0.217785,-1.58479 -1.681322,-4.07789 -3.106312,-4.07789 -0.319269,0 -1.316273,0.35953 -1.916719,0.69118 -0.340281,0.18796 -0.996611,0.61574 -1.458512,0.95064 -0.461902,0.33489 -0.852834,0.5945 -0.868739,0.57689 -0.01591,-0.0176 -0.08106,-0.48787 -0.144791,-1.04504 -0.365558,-3.196 -1.734473,-5.74301 -3.478001,-6.4712 -1.107948,-0.46274 -2.790591,-0.32814 -3.897739,0.31179 -2.110566,1.2199 -2.733981,5.41706 -1.352943,9.10872 0.247156,0.66068 0.795851,1.61358 1.031517,1.7914 0.195827,0.14777 0.187695,0.0989 -0.136721,-0.82191 -0.393182,-1.11596 -0.507649,-1.88561 -0.434729,-2.923 0.08238,-1.17191 0.335628,-2.03658 0.903025,-3.08316 1.247189,-2.30047 3.414942,-3.06695 5.109738,-1.8067 0.583472,0.43386 1.03815,1.14131 1.27655,1.98622 0.147608,0.52314 0.166983,0.90496 0.142375,2.80577 -0.02406,1.85835 -0.0052,2.25094 0.121496,2.52658 0.205941,0.44813 0.410617,0.63277 0.701423,0.63277 0.291499,0 0.504537,-0.12736 2.498,-1.49343 1.796856,-1.23133 2.247975,-1.44985 3.01133,-1.45869 0.495909,-0.006 0.573861,0.0185 0.788568,0.24527 0.201774,0.2131 0.229773,0.30792 0.182843,0.61922 -0.171172,1.13543 -1.915286,3.48234 -3.18017,4.2793 -0.411964,0.25956 -0.434074,0.30988 -0.221191,0.50343 0.213575,0.19418 0.768081,0.16443 1.324322,-0.071 z m -12.700615,-2.24361 c -0.463827,-0.61292 -1.19068,-2.07041 -1.408544,-2.82441 -0.725721,-2.51164 -0.57566,-5.17556 0.390068,-6.92457 0.220335,-0.39905 0.13882,-0.40785 -0.64697,-0.0699 -0.682093,0.29338 -1.359603,0.83185 -1.688347,1.34186 -0.726611,1.12727 -0.599723,2.90161 0.356907,4.99085 0.600015,1.31041 2.703523,3.84225 3.217755,3.87298 0.0414,0.002 -0.05799,-0.17161 -0.220869,-0.38684 z"
     style="fill:#6ec1bd;fill-opacity:1"
     id="path1" /></svg>
